<?xml version="1.0" standalone="no"?>
<!DOCTYPE svg PUBLIC "-//W3C//DTD SVG 20010904//EN"
 "http://www.w3.org/TR/2001/REC-SVG-20010904/DTD/svg10.dtd">
<svg version="1.0" xmlns="http://www.w3.org/2000/svg"
 width="30.000000pt" height="30.000000pt" viewBox="0 0 30.000000 30.000000"
 preserveAspectRatio="xMidYMid meet">

<g transform="translate(0.000000,30.000000) scale(0.100000,-0.100000)"
fill="#000000" stroke="none">
<path d="M40 245 l-24 -26 27 -26 c27 -28 50 -26 27 2 -11 13 -3 15 67 15 70
0 82 -3 101 -23 46 -49 10 -117 -61 -117 -20 0 -37 -4 -37 -10 0 -5 18 -10 39
-10 52 0 90 32 98 82 5 32 1 41 -25 68 -29 29 -34 30 -113 30 -65 0 -80 3 -71
12 7 7 12 16 12 20 0 15 -17 8 -40 -17z"/>
<path d="M20 60 c0 -5 5 -10 10 -10 6 0 10 5 10 10 0 6 -4 10 -10 10 -5 0 -10
-4 -10 -10z"/>
<path d="M60 60 c0 -5 5 -10 10 -10 6 0 10 5 10 10 0 6 -4 10 -10 10 -5 0 -10
-4 -10 -10z"/>
<path d="M100 60 c0 -5 5 -10 10 -10 6 0 10 5 10 10 0 6 -4 10 -10 10 -5 0
-10 -4 -10 -10z"/>
</g>
</svg>
