<?xml version="1.0" standalone="no"?>
<!DOCTYPE svg PUBLIC "-//W3C//DTD SVG 20010904//EN"
 "http://www.w3.org/TR/2001/REC-SVG-20010904/DTD/svg10.dtd">
<svg version="1.0" xmlns="http://www.w3.org/2000/svg"
 width="30.000000pt" height="30.000000pt" viewBox="0 0 30.000000 30.000000"
 preserveAspectRatio="xMidYMid meet">

<g transform="translate(0.000000,30.000000) scale(0.100000,-0.100000)"
fill="#000000" stroke="none">
<path d="M10 271 c0 -5 7 -11 16 -13 11 -2 26 -31 43 -83 l26 -80 73 -3 73 -3
13 33 c8 18 17 48 21 66 l7 32 -104 0 -104 0 -11 30 c-8 20 -18 30 -32 30 -12
0 -21 -4 -21 -9z"/>
<path d="M104 59 c-10 -17 13 -36 27 -22 12 12 4 33 -11 33 -5 0 -12 -5 -16
-11z"/>
<path d="M204 59 c-10 -17 13 -36 27 -22 12 12 4 33 -11 33 -5 0 -12 -5 -16
-11z"/>
</g>
</svg>
